#!OML:ASF F:\VICON\USERDATA\INSTALL\rory3\rory3.ASF
:FULLY-SPECIFIED
:DEGREES
142
root 0.208314 20.9537 6.03502 18.4114 -6.30051 -4.17734
lowerback -7.34618 0.760336 5.24467
upperback -5.92082 0.74942 2.61629
thorax -1.99198 0.252016 -0.193433
lowerneck -15.2786 -3.37529 -6.4531
upperneck 24.8481 -3.70747 2.37065
head 10.6878 -2.03242 1.4288
rclavicle 1.19768e-014 -3.57812e-014
rhumerus -45.1161 5.24852 -81.576
rradius 47.4274
rwrist 1.7923
rhand -21.2465 -51.5125
rfingers 7.12502
rthumb 5.13639 -81.4303
lclavicle 1.19768e-014 -3.57812e-014
lhumerus -47.2483 -13.602 90.6667
lradius 47.5302
lwrist 9.65177
lhand -31.5498 -36.3546
lfingers 7.12502
lthumb -4.81399 -6.42927
rfemur -33.1987 7.2372 15.824
rtibia 37.3262
rfoot 20.722 1.01903
rtoes -22.7737
lfemur -31.2779 5.73066 -13.2881
ltibia 41.1757
lfoot 17.155 0.848406
ltoes -15.289
143
root 0.217987 21.045 6.03525 18.021 -6.07089 -4.87956
lowerback -6.76773 0.691658 6.13548
upperback -5.96467 0.665749 2.74292
thorax -2.36291 0.174511 -0.56701
lowerneck -15.0261 -3.35251 -6.29652
upperneck 25.2764 -3.73171 2.31648
head 10.7931 -2.04241 1.38375
rclavicle -2.71838e-014 -1.66979e-014
rhumerus -45.2423 5.04659 -81.7116
rradius 46.7262
rwrist 1.96844
rhand -21.1883 -51.5813
rfingers 7.12502
rthumb 5.19252 -81.4976
lclavicle -2.71838e-014 -1.66979e-014
lhumerus -47.2526 -13.4379 90.4684
lradius 46.8167
lwrist 9.19893
lhand -31.7777 -36.4797
lfingers 7.12502
lthumb -5.03413 -6.55947
rfemur -32.5504 6.88786 16.8571
rtibia 37.613
rfoot 20.122 0.746816
rtoes -22.194
lfemur -30.9726 5.62025 -12.3665
ltibia 41.8598
lfoot 16.2768 0.594198
ltoes -15.6944
144
root 0.224536 21.1292 6.03555 17.6378 -6.04337 -5.41916
lowerback -6.27341 0.636314 6.76039
upperback -5.9585 0.611684 2.85218
thorax -2.63672 0.121237 -0.806462
lowerneck -14.7606 -3.24625 -6.17683
upperneck 25.4965 -3.66303 2.4066
head 10.8175 -1.99392 1.40973
rclavicle -5.56597e-015 -2.14687e-014
rhumerus -45.4995 4.9298 -81.8492
rradius 46.4994
rwrist 2.0532
rhand -20.7471 -52.4412
rfingers 7.12502
rthumb 5.61855 -82.3468
lclavicle -5.56597e-015 -2.14687e-014
lhumerus -47.2135 -13.2277 90.2542
lradius 46.2502
lwrist 8.92358
lhand -31.8571 -35.4817
lfingers 7.12502
lthumb -5.11078 -5.56334
rfemur -32.0395 6.75671 17.6005
rtibia 37.8282
rfoot 19.743 -0.557683
rtoes -19.6489
lfemur -30.5526 5.50016 -11.6488
ltibia 42.1168
lfoot 15.8012 1.29555
ltoes -15.1795
145
root 0.225312 21.2015 6.03959 17.0615 -6.15576 -5.62043
lowerback -5.88773 0.565046 6.93119
upperback -5.76484 0.536243 2.89971
thorax -2.65382 0.0816894 -0.857891
lowerneck -14.5257 -3.18227 -6.13877
upperneck 25.6587 -3.63392 2.51582
head 10.8308 -1.96805 1.45022
rclavicle 1.84373e-014 -1.39149e-014
rhumerus -45.4541 4.71557 -81.9029
rradius 46.1156
rwrist 2.2151
rhand -20.181 -53.1494
rfingers 7.12502
rthumb 6.16505 -83.0397
lclavicle 1.84373e-014 -1.39149e-014
lhumerus -47.0301 -12.968 89.9798
lradius 45.7512
lwrist 8.56724
lhand -31.9974 -34.8941
lfingers 7.12502
lthumb -5.24624 -4.979
rfemur -31.4637 6.87686 17.9222
rtibia 38.0605
rfoot 19.3334 -1.80932
rtoes -17.1675
lfemur -29.8351 5.20091 -11.2485
ltibia 41.9595
lfoot 15.6956 2.60614
ltoes -13.9738
146
root 0.228227 21.257 6.04452 16.2545 -5.95846 -5.52078
lowerback -5.53991 0.394234 6.92553
upperback -5.44802 0.323371 2.86384
thorax -2.52868 -0.0154899 -0.902339
lowerneck -14.1814 -3.14094 -6.13239
upperneck 25.7529 -3.63314 2.62185
head 10.7995 -1.95881 1.49202
rclavicle -1.19271e-015 5.1684e-015
rhumerus -45.1218 4.39063 -81.8646
rradius 45.3272
rwrist 2.51981
rhand -19.6089 -53.2318
rfingers 7.12502
rthumb 6.71734 -83.1052
lclavicle -1.19271e-015 5.1684e-015
lhumerus -46.7385 -12.7792 89.6944
lradius 45.25
lwrist 8.1873
lhand -32.2483 -34.9442
lfingers 7.12502
lthumb -5.48844 -5.03532
rfemur -30.5034 6.68012 18.0571
rtibia 38.259
rfoot 18.6036 -2.19068
rtoes -17.0624
lfemur -28.7841 4.51972 -11.0829
ltibia 41.4746
lfoot 15.689 3.55787
ltoes -13.2147
147
root 0.233809 21.3056 6.04796 15.4634 -5.56842 -5.26943
lowerback -5.02009 0.140106 6.80472
upperback -5.27085 0.0280561 2.80841
thorax -2.65141 -0.159727 -0.9029
lowerneck -13.8886 -3.11999 -6.16314
upperneck 25.9163 -3.65503 2.7451
head 10.8065 -1.96185 1.54282
rclavicle 7.56624e-015 -4.33351e-014
rhumerus -45.0315 4.12076 -81.8378
rradius 44.7659
rwrist 2.84474
rhand -19.5049 -53.2171
rfingers 7.12502
rthumb 6.81778 -83.0874
lclavicle 7.56624e-015 -4.33351e-014
lhumerus -46.633 -12.6659 89.5228
lradius 44.7894
lwrist 8.10925
lhand -32.4527 -34.9353
lfingers 7.12502
lthumb -5.68578 -5.03156
rfemur -29.4261 6.13301 18.1334
rtibia 38.4493
rfoot 17.3906 -2.31711
rtoes -18.5696
lfemur -27.7162 3.6671 -11.0778
ltibia 40.8109
lfoot 15.5938 3.86007
ltoes -14.4947
148
root 0.235068 21.3503 6.0547 15.1749 -5.66022 -5.29104
lowerback -4.58639 0.0340262 6.72868
upperback -5.34779 -0.064868 2.84913
thorax -2.98007 -0.212978 -0.81869
lowerneck -14.1544 -3.00721 -6.11161
upperneck 26.6546 -3.53696 2.84048
head 11.1299 -1.89612 1.5858
rclavicle -3.37934e-015 1.35174e-014
rhumerus -45.1983 3.9636 -81.8614
rradius 44.1158
rwrist 3.06624
rhand -20.7538 -51.383
rfingers 7.12502
rthumb 5.61205 -81.2887
lclavicle -3.37934e-015 1.35174e-014
lhumerus -46.7437 -12.4965 89.4103
lradius 44.3926
lwrist 8.35138
lhand -32.5478 -35.2006
lfingers 7.12502
lthumb -5.7776 -5.29933
rfemur -29.1951 6.15022 18.1926
rtibia 38.5547
rfoot 16.4467 -3.69606
rtoes -16.1967
lfemur -27.0016 3.32933 -10.9348
ltibia 40.0639
lfoot 15.5371 3.91354
ltoes -17.0095
149
root 0.230133 21.3771 6.0604 15.3736 -6.16577 -5.42305
lowerback -4.6794 0.108813 6.65613
upperback -5.50672 0.0365454 2.86711
thorax -3.08753 -0.165605 -0.756676
lowerneck -14.5816 -2.80117 -5.95797
upperneck 27.6005 -3.31143 2.94552
head 11.5625 -1.77015 1.63231
rclavicle 1.46604e-015 -2.0276e-014
rhumerus -45.4357 3.83058 -82.0108
rradius 43.6045
rwrist 2.48042
rhand -22.4352 -49.0722
rfingers 7.12502
rthumb 3.9885 -79.0146
lclavicle 1.46604e-015 -2.0276e-014
lhumerus -46.9027 -12.305 89.1434
lradius 44.2067
lwrist 8.32569
lhand -32.2688 -34.5627
lfingers 7.12502
lthumb -5.50823 -4.65425
rfemur -29.5116 6.40598 18.2586
rtibia 38.6489
rfoot 15.8436 -4.01536
rtoes -15.3346
lfemur -26.7286 3.43036 -10.7695
ltibia 39.2898
lfoot 15.617 4.40282
ltoes -18.5659
150
root 0.223249 21.3916 6.06575 15.4566 -6.41088 -5.27473
lowerback -4.96613 0.102428 6.42743
upperback -5.56643 0.00856829 2.7879
thorax -2.98845 -0.172024 -0.712629
lowerneck -14.543 -2.69596 -5.93404
upperneck 28.0385 -3.22672 3.09267
head 11.7214 -1.71601 1.69904
rclavicle -1.08462e-014 3.97569e-016
rhumerus -45.573 3.56902 -82.1208
rradius 43.1411
rwrist 2.23753
rhand -23.2524 -47.6487
rfingers 7.12502
rthumb 3.19939 -77.6045
lclavicle -1.08462e-014 3.97569e-016
lhumerus -47.0236 -12.0976 88.7541
lradius 44.1664
lwrist 7.65015
lhand -31.9781 -33.481
lfingers 7.12502
lthumb -5.22763 -3.56545
rfemur -29.6314 6.45906 18.1155
rtibia 38.7158
rfoot 15.1795 -3.94719
rtoes -15.9601
lfemur -26.4818 3.30778 -10.8117
ltibia 38.4919
lfoot 15.6683 5.2911
ltoes -18.7538
151
root 0.216627 21.3916 6.07305 15.3355 -6.4383 -4.98128
lowerback -5.1045 -0.00482733 6.11226
upperback -5.58834 -0.138592 2.70562
thorax -2.93844 -0.235518 -0.626619
lowerneck -14.3508 -2.62641 -5.93825
upperneck 28.2671 -3.15565 3.12424
head 11.7678 -1.68529 1.72539
rclavicle 1.4971e-014 -7.15625e-015
rhumerus -45.6279 3.23902 -82.1013
rradius 42.6182
rwrist 2.46933
rhand -22.7877 -47.8406
rfingers 7.12502
rthumb 3.64814 -77.7891
lclavicle 1.4971e-014 -7.15625e-015
lhumerus -47.0914 -11.9584 88.4909
lradius 43.9888
lwrist 7.12192
lhand -32.1718 -33.4651
lfingers 7.12502
lthumb -5.41463 -3.55428
rfemur -29.5306 6.39075 17.8926
rtibia 38.8395
rfoot 14.5555 -5.15568
rtoes -14.4754
lfemur -26.0752 3.08132 -10.9651
ltibia 37.7028
lfoot 15.913 5.19723
ltoes -19.2602
152
root 0.211696 21.3769 6.08382 15.3543 -6.49245 -4.66215
lowerback -5.23835 -0.0982163 5.76457
upperback -5.78833 -0.255107 2.65952
thorax -3.0747 -0.288922 -0.482567
lowerneck -14.2087 -2.52962 -5.92419
upperneck 28.747 -3.00154 2.98353
head 11.9163 -1.63915 1.69797
rclavicle -5.39203e-015 -3.57812e-014
rhumerus -45.9847 3.01552 -81.9815
rradius 42.2352
rwrist 2.82821
rhand -22.314 -47.9034
rfingers 7.12502
rthumb 4.10558 -77.8436
lclavicle -5.39203e-015 -3.57812e-014
lhumerus -47.3032 -11.9199 88.46
lradius 43.675
lwrist 7.1842
lhand -32.3003 -33.7004
lfingers 7.12502
lthumb -5.53871 -3.79276
rfemur -29.5769 6.28178 17.6148
rtibia 38.967
rfoot 13.6541 -5.06309
rtoes -15.0116
lfemur -25.8159 2.97049 -11.1859
ltibia 36.9328
lfoot 16.3983 4.16345
ltoes -20.6451
153
root 0.209098 21.3539 6.09663 15.5947 -6.51003 -4.31133
lowerback -5.47576 -0.193805 5.374
upperback -6.15132 -0.372585 2.65003
thorax -3.32263 -0.344236 -0.275358
lowerneck -13.9094 -2.42692 -5.98085
upperneck 29.2028 -2.81631 2.80437
head 12.024 -1.59363 1.67338
rclavicle -1.64572e-014 2.06736e-014
rhumerus -46.5867 2.6858 -81.6959
rradius 42.2236
rwrist 3.39636
rhand -21.2747 -48.5252
rfingers 7.12502
rthumb 5.10911 -78.4436
lclavicle -1.64572e-014 2.06736e-014
lhumerus -47.6167 -11.8649 88.5074
lradius 43.3353
lwrist 7.13768
lhand -32.1369 -33.8778
lfingers 7.12502
lthumb -5.38094 -3.96617
rfemur -29.7892 6.03707 17.2774
rtibia 38.985
rfoot 13.0575 -5.05604
rtoes -15.0976
lfemur -25.8239 2.86828 -11.4482
ltibia 36.1778
lfoot 16.7198 3.34828
ltoes -22.1022
154
root 0.200906 21.3182 6.10302 15.8895 -6.63207 -4.01571
lowerback -5.80175 -0.242688 4.91037
upperback -6.3426 -0.439886 2.63577
thorax -3.33639 -0.363299 -0.0343072
lowerneck -13.8108 -2.36513 -5.88124
upperneck 29.3718 -2.6895 2.55728
head 12.0592 -1.56057 1.58347
rclavicle -2.24607e-014 1.31198e-014
rhumerus -46.8291 2.02674 -81.4134
rradius 41.9587
rwrist 3.13381
rhand -22.1406 -47.6138
rfingers 7.12502
rthumb 4.273 -77.5507
lclavicle -2.24607e-014 1.31198e-014
lhumerus -47.6236 -11.8662 88.4261
lradius 43.1232
lwrist 6.84146
lhand -31.9198 -33.5387
lfingers 7.12502
lthumb -5.17131 -3.62184
rfemur -30.1267 6.00568 16.9633
rtibia 38.9428
rfoot 12.6646 -4.6826
rtoes -16.4584
lfemur -25.8856 2.87013 -11.6443
ltibia 35.4625
lfoot 16.8917 3.27557
ltoes -22.5213
155
root 0.193822 21.2801 6.14237 16.331 -6.69836 -4.0476
lowerback -6.89967 -0.193141 4.90692
upperback -6.30838 -0.455265 2.63402
thorax -2.68992 -0.35975 -0.0446622
lowerneck -13.9838 -2.39463 -5.74975
upperneck 29.5213 -2.69984 2.36251
head 12.1505 -1.57586 1.48549
rclavicle -3.11261e-015 7.95139e-016
rhumerus -46.8045 1.35393 -81.1772
rradius 41.5821
rwrist 2.94966
rhand -23.1395 -45.6479
rfingers 7.12502
rthumb 3.3084 -75.6019
lclavicle -3.11261e-015 7.95139e-016
lhumerus -47.4288 -12.0307 88.3195
lradius 42.9347
lwrist 6.68394
lhand -31.8242 -33.6945
lfingers 7.12502
lthumb -5.07895 -3.77536
rfemur -30.3692 5.91596 16.9771
rtibia 38.777
rfoot 11.9701 -4.94807
rtoes -15.7515
lfemur -25.9529 3.01579 -11.5303
ltibia 34.8063
lfoot 17.0236 3.85415
ltoes -20.7103
